<svg width="210" height="297" xmlns="http://www.w3.org/2000/svg" xmlns:undefined="http://www.inkscape.org/namespaces/inkscape" version="1.1">

 <metadata id="metadata5">image/svg+xml</metadata>
 <g>
  <title>Layer 1</title>
  <g id="layer1"  >
   <path fill="#000000" fill-rule="nonzero" stroke-width="0.10692" id="path12" d="m115.05853,51.22537c23.45485,-4.85403 38.45715,-24.07219 38.52314,-47.95724c-22.05405,0.18258 -44.78638,25.17603 -38.52314,47.95724m86.47997,164.3115c-39.80579,0 -69.8789,-36.76942 -59.83129,-76.25946c2.128,-8.36569 6.60696,-15.97919 11.7951,-22.79916c2.48425,-3.26565 7.43475,-6.63867 7.69119,-11.00654c0.9226,-15.6952 -13.0915,-30.60936 -25.69395,-37.49155c-23.95354,-13.07899 -60.63817,-5.94036 -73.0205,20.19547c-5.51935,11.65057 -2.15428,24.35578 -6.42651,36.16422c-6.1283,16.94066 -18.43503,28.02742 -27.1382,43.24019c-11.94128,20.87459 -14.7776,50.19673 -4.80726,72.32848c28.77961,63.88754 125.31804,71.23373 164.32487,13.36506c7.51994,-11.1565 13.06896,-24.10808 13.10655,-37.73671zm0,0"/>
  </g>
 </g>
</svg>
